<?xml version="1.0" encoding="UTF-8"?>
<!DOCTYPE svg PUBLIC "-//W3C//DTD SVG 1.1//EN" "http://www.w3.org/Graphics/SVG/1.1/DTD/svg11.dtd">
<svg xmlns="http://www.w3.org/2000/svg" version="1.1" width="1000px" height="1024px" style="shape-rendering:geometricPrecision; text-rendering:geometricPrecision; image-rendering:optimizeQuality; fill-rule:evenodd; clip-rule:evenodd" xmlns:xlink="http://www.w3.org/1999/xlink">
<g><path style="opacity:0.992" fill="#eca90e" d="M 459.5,25.5 C 586.049,24.5455 690.882,71.2122 774,165.5C 774.982,166.759 775.315,168.092 775,169.5C 739.81,139.098 698.976,121.931 652.5,118C 695.975,135.132 733.142,161.299 764,196.5C 780.251,215.921 794.751,236.588 807.5,258.5C 799.704,252.229 792.037,245.062 784.5,237C 761.112,216.14 734.779,200.14 705.5,189C 739.311,214.168 765.978,245.335 785.5,282.5C 784.998,283.521 784.332,283.688 783.5,283C 771.665,273.84 758.831,266.34 745,260.5C 740.165,271.275 742.332,280.441 751.5,288C 798.63,320.796 837.963,361.129 869.5,409C 866.374,406.64 862.707,404.973 858.5,404C 840.654,405.559 822.988,404.393 805.5,400.5C 796.13,401.683 787.463,404.849 779.5,410C 766.956,412.748 754.289,413.248 741.5,411.5C 739.035,411.478 736.702,411.978 734.5,413C 733.549,413.718 733.383,414.551 734,415.5C 744.421,428.257 756.921,438.424 771.5,446C 784.152,449.104 796.152,453.771 807.5,460C 816.73,466.951 822.564,476.118 825,487.5C 825.667,502.167 825.667,516.833 825,531.5C 806.635,544.852 787.469,557.018 767.5,568C 746.656,578.922 725.656,589.589 704.5,600C 680.554,611.106 655.887,613.106 630.5,606C 624.548,604.048 619.715,600.548 616,595.5C 593.632,570.803 573.966,544.136 557,515.5C 549.898,501.964 543.898,487.964 539,473.5C 534.452,454.94 533.785,436.273 537,417.5C 542.756,397.152 552.423,395.152 566,411.5C 570.795,417.642 574.795,424.309 578,431.5C 574.296,410.593 565.13,392.426 550.5,377C 536.565,364.189 520.232,358.523 501.5,360C 480.667,372.123 468.667,390.29 465.5,414.5C 460.232,463.663 468.065,510.663 489,555.5C 500.31,580.136 513.643,603.469 529,625.5C 552.287,655.123 575.954,684.456 600,713.5C 626.972,748.105 651.972,784.105 675,821.5C 679.953,831.035 684.12,840.868 687.5,851C 632.696,916.317 565.863,965.15 487,997.5C 499.526,947.417 501.859,896.75 494,845.5C 484.179,782.707 465.513,722.707 438,665.5C 440.907,719.17 437.907,772.504 429,825.5C 423.797,854.109 414.797,881.442 402,907.5C 399.031,912.634 395.864,917.634 392.5,922.5C 387.052,861.53 377.552,801.197 364,741.5C 352.992,691.135 335.658,643.135 312,597.5C 301.344,577.675 287.844,560.009 271.5,544.5C 288.562,606.976 301.396,670.643 310,735.5C 316.658,783.812 316.991,832.145 311,880.5C 310.781,881.938 310.281,883.271 309.5,884.5C 275.674,851.525 246.174,815.191 221,775.5C 184.381,718.922 156.381,658.255 137,593.5C 116.189,518.649 112.522,442.982 126,366.5C 131.371,336.708 142.038,309.041 158,283.5C 163.645,276.354 169.478,269.354 175.5,262.5C 163.843,254.002 150.843,250.669 136.5,252.5C 141.208,237.751 148.041,224.084 157,211.5C 186.523,172.329 224.356,144.162 270.5,127C 283.518,122.384 296.518,117.884 309.5,113.5C 302.806,95.9734 290.473,84.4734 272.5,79C 271.167,78.3333 271.167,77.6667 272.5,77C 331.219,46.2398 393.553,29.0731 459.5,25.5 Z M 371.5,165.5 C 382.315,165.954 392.648,168.454 402.5,173C 418.156,180.155 432.822,188.821 446.5,199C 429.785,194.521 412.785,193.521 395.5,196C 392.851,196.452 390.351,197.286 388,198.5C 387.779,195.096 388.279,191.762 389.5,188.5C 371.147,190.505 353.814,196.172 337.5,205.5C 340.666,193.409 347.333,183.242 357.5,175C 362.071,171.579 366.737,168.412 371.5,165.5 Z M 541.5,269.5 C 570.354,266.339 590.521,278.005 602,304.5C 603.776,309.148 605.11,313.815 606,318.5C 600.674,312.84 594.508,308.34 587.5,305C 566.387,308.46 548.053,302.96 532.5,288.5C 532.167,288.667 531.833,288.833 531.5,289C 532.842,291.015 533.342,293.182 533,295.5C 526.579,293.153 519.912,291.82 513,291.5C 508.52,292.432 504.02,292.599 499.5,292C 511.148,280.011 525.148,272.511 541.5,269.5 Z M 313.5,303.5 C 319.167,303.5 324.833,303.5 330.5,303.5C 322.678,315.803 315.845,328.803 310,342.5C 305.961,352.181 304.461,362.181 305.5,372.5C 316.475,365.588 328.475,362.088 341.5,362C 361.099,387.025 375.599,414.859 385,445.5C 394.226,477.071 393.559,508.404 383,539.5C 375.267,500.181 355.101,469.014 322.5,446C 310.278,437.386 297.278,430.053 283.5,424C 297.937,416.748 313.104,414.248 329,416.5C 325.357,410.513 320.524,405.347 314.5,401C 298.078,390.135 280.078,383.302 260.5,380.5C 258.86,368.736 262.026,358.403 270,349.5C 270.688,348.668 270.521,348.002 269.5,347.5C 259.759,344.142 249.926,343.809 240,346.5C 239.5,346.167 239,345.833 238.5,345.5C 258.741,322.882 283.741,308.882 313.5,303.5 Z"/></g>
<g><path style="opacity:0.967" fill="#eca90e" d="M 870.5,422.5 C 871.586,422.62 872.253,423.287 872.5,424.5C 882.8,464.907 883.967,505.574 876,546.5C 874.077,557.202 871.077,567.535 867,577.5C 861.408,559.902 851.742,544.902 838,532.5C 837.333,516.833 837.333,501.167 838,485.5C 850.932,472.644 860.599,457.644 867,440.5C 869.003,434.654 870.169,428.654 870.5,422.5 Z"/></g>
<g><path style="opacity:0.986" fill="#eca90e" d="M 831.5,553.5 C 839.204,563.205 845.704,573.872 851,585.5C 855.983,595.74 857.317,606.407 855,617.5C 850.62,633.065 846.62,648.732 843,664.5C 838.762,682.48 828.596,695.98 812.5,705C 776.203,724.286 739.87,724.286 703.5,705C 672.043,682.381 646.376,654.548 626.5,621.5C 626.808,620.692 627.308,620.025 628,619.5C 651.792,629.172 675.958,630.006 700.5,622C 740.407,607.046 778.407,588.379 814.5,566C 820.234,561.812 825.901,557.646 831.5,553.5 Z"/></g>
</svg>
